<?xml version="1.0" encoding="utf-8"?>
<!-- Generator: Adobe Illustrator 24.1.1, SVG Export Plug-In . SVG Version: 6.00 Build 0)  -->
<svg version="1.1" xmlns="http://www.w3.org/2000/svg" xmlns:xlink="http://www.w3.org/1999/xlink" x="0px" y="0px"
	 viewBox="0 0 500 500" style="enable-background:new 0 0 500 500;" xml:space="preserve">
<style type="text/css">
	.st0{opacity:0.9;fill:#718696;}
	.st1{opacity:0.3;fill:#718696;}
	.st2{fill:#9D9D9C;}
	.st3{fill:#718696;}
	.st4{opacity:0.05;}
	.st5{fill:#FFFFFF;}
	.st6{fill:#FFFFFF;stroke:#FFFFFF;stroke-miterlimit:10;}
	.st7{opacity:0.2;fill:#718696;}
	.st8{fill:#F3F5F9;}
	.st9{fill:none;stroke:#718696;stroke-miterlimit:10;}
	.st10{fill:#F3F5F9;stroke:#F3F5F9;stroke-width:2;stroke-linejoin:round;stroke-miterlimit:10;}
	.st11{fill:#718696;stroke:#718696;stroke-width:2;stroke-linecap:round;stroke-linejoin:round;stroke-miterlimit:10;}
	.st12{fill:#D08E54;}
	.st13{fill:#B7C4C4;}
	.st14{fill:#5591CD;}
	.st15{fill:none;stroke:#D08E54;stroke-width:3;stroke-miterlimit:10;}
	.st16{fill:none;stroke:#FFFFFF;stroke-miterlimit:10;}
	.st17{fill:none;stroke:#FFFFFF;stroke-width:0.5;stroke-miterlimit:10;}
	.st18{fill:none;stroke:#9D9D9C;stroke-miterlimit:10;stroke-dasharray:0.5,2;}
	.st19{fill:none;stroke:#9D9D9C;stroke-miterlimit:10;}
	.st20{fill:none;stroke:#B7C4C4;stroke-width:3;stroke-miterlimit:10;}
	.st21{clip-path:url(#SVGID_20_);}
	.st22{clip-path:url(#SVGID_24_);}
	.st23{clip-path:url(#SVGID_28_);}
	.st24{clip-path:url(#SVGID_32_);}
	.st25{clip-path:url(#SVGID_36_);}
	.st26{fill:none;stroke:#9D9D9C;stroke-miterlimit:10;stroke-dasharray:0.5,2.001;}
	.st27{fill:none;stroke:#9D9D9C;stroke-miterlimit:10;stroke-dasharray:0.5,1.998;}
	.st28{fill:none;stroke:#3E3F3C;stroke-width:0.5;stroke-miterlimit:10;}
	.st29{fill:none;stroke:#575756;stroke-width:0.6;stroke-miterlimit:10;}
	.st30{fill:#575756;}
	.st31{clip-path:url(#SVGID_40_);}
	.st32{opacity:0.9;}
	.st33{clip-path:url(#SVGID_44_);fill:#718696;}
	.st34{clip-path:url(#SVGID_46_);}
	.st35{clip-path:url(#SVGID_50_);}
	.st36{clip-path:url(#SVGID_54_);}
	.st37{clip-path:url(#SVGID_58_);}
	.st38{clip-path:url(#SVGID_62_);fill:#718696;}
	.st39{clip-path:url(#SVGID_64_);fill:#718696;}
	.st40{clip-path:url(#SVGID_66_);fill:#718696;}
	.st41{clip-path:url(#SVGID_68_);fill:#718696;}
	.st42{fill:#3E3F3C;}
	.st43{fill:none;stroke:#575756;stroke-linecap:round;stroke-miterlimit:10;}
</style>
<g id="Capa_2">
	<path class="st3" d="M252.39,494.61h-4.79C112.51,494.61,3,385.09,3,250v0C3,114.91,112.51,5.39,247.61,5.39h4.79
		C387.49,5.39,497,114.91,497,250v0C497,385.09,387.49,494.61,252.39,494.61z"/>
</g>
<g id="Capa_1">
	<g>
		<polygon class="st5" points="112.54,224.72 94.56,273.96 94.29,273.2 76.59,224.72 64,224.72 88.78,288.02 99.99,288.02 
			124.77,224.72 		"/>
		<path class="st5" d="M139.07,287.27c3.45,1.68,7.43,2.54,11.84,2.54c4.76,0,9.02-1.08,12.68-3.22c2.44-1.43,4.51-3.2,6.15-5.28
			l0.47-0.59l0.45,7.31h10.23v-38.79c0-5.21-1.06-9.82-3.15-13.72c-2.1-3.91-5.11-7-8.94-9.18c-3.82-2.18-8.32-3.28-13.38-3.28
			c-3.9,0-7.6,0.66-10.99,1.97c-3.42,1.32-6.37,3.19-8.77,5.57c-2.44,2.4-4.26,5.28-5.41,8.58l-0.33,0.93l10.13,3.47l0.36-0.84
			c1.26-2.97,3.19-5.3,5.74-6.93c2.57-1.63,5.65-2.46,9.17-2.46c2.9,0,5.45,0.65,7.57,1.94c2.16,1.3,3.81,3.07,5.05,5.44
			c1.22,2.33,1.84,5.12,1.84,8.28v3.03l-0.4-0.15c-1.89-0.72-3.99-1.33-6.25-1.82c-2.97-0.65-5.97-0.98-8.89-0.98
			c-5.15,0-9.76,0.85-13.7,2.52c-3.95,1.69-7.07,4.1-9.26,7.17c-2.22,3.08-3.34,6.79-3.34,11.03c0,3.91,0.99,7.41,2.96,10.4
			C132.84,283.2,135.59,285.57,139.07,287.27 M143.58,261.56c2.78-2,6.73-3.02,11.73-3.02c2.32,0,4.79,0.29,7.33,0.86
			c2.28,0.5,4.62,1.21,6.94,2.08l0.19,0.07v1.58c0,3.21-0.75,6.1-2.23,8.59c-1.49,2.51-3.55,4.51-6.12,5.95
			c-2.58,1.46-5.52,2.19-8.72,2.19c-2.62,0-4.97-0.45-6.97-1.33c-1.98-0.89-3.52-2.12-4.59-3.66c-1.09-1.55-1.61-3.33-1.61-5.44
			C139.53,266.11,140.85,263.54,143.58,261.56"/>
		<rect x="195.1" y="212.17" class="st5" width="11.47" height="75.85"/>
		<path class="st5" d="M295.19,210.52v22.34l-0.52-0.64c-1.95-2.42-4.3-4.42-6.99-5.94c-3.9-2.22-8.32-3.34-13.14-3.34
			c-4.25,0-8.27,0.87-11.95,2.59c-3.68,1.71-6.92,4.11-9.65,7.12c-2.74,3.02-4.88,6.6-6.38,10.66c-1.5,4.05-2.26,8.48-2.26,13.18
			c0,4.7,0.76,9.12,2.26,13.12c1.5,4.02,3.62,7.58,6.31,10.59c2.7,3.03,5.89,5.41,9.47,7.07c3.6,1.68,7.54,2.53,11.71,2.53
			c5.15,0,9.82-1.25,13.89-3.7c2.88-1.75,5.36-4.01,7.36-6.73l0.49-0.67l0.38,9.31h10.49v-77.5H295.19z M293.95,265.61
			c-0.99,2.77-2.39,5.18-4.15,7.17c-1.76,1.98-3.85,3.57-6.23,4.7c-2.35,1.12-5.1,1.68-7.84,1.68c-2.75,0-5.49-0.56-7.84-1.68
			c-2.37-1.13-4.46-2.7-6.22-4.7c-1.77-1.99-3.17-4.41-4.15-7.17c-0.99-2.76-1.49-5.86-1.49-9.23c0-3.37,0.5-6.48,1.49-9.24
			c0.98-2.76,2.38-5.17,4.16-7.18c1.76-1.99,3.85-3.57,6.21-4.69c2.36-1.12,5-1.69,7.84-1.69c2.84,0,5.47,0.56,7.84,1.68
			c2.37,1.13,4.46,2.72,6.23,4.7c1.77,2,3.16,4.42,4.15,7.18c0.99,2.78,1.49,5.89,1.49,9.24
			C295.43,259.72,294.93,262.83,293.95,265.61"/>
		<path class="st5" d="M329.5,287.27c3.45,1.68,7.43,2.54,11.84,2.54c4.76,0,9.02-1.08,12.69-3.22c2.44-1.43,4.51-3.21,6.15-5.27
			l0.47-0.6l0.45,7.32h10.24v-38.79c0-5.21-1.06-9.82-3.15-13.72c-2.1-3.91-5.11-7-8.94-9.18c-3.82-2.18-8.32-3.28-13.38-3.28
			c-3.9,0-7.6,0.66-10.99,1.97c-3.42,1.32-6.37,3.19-8.77,5.57c-2.44,2.39-4.26,5.28-5.41,8.58l-0.33,0.93l10.13,3.47l0.36-0.84
			c1.25-2.97,3.18-5.3,5.73-6.93c2.56-1.63,5.64-2.46,9.17-2.46c2.9,0,5.45,0.65,7.57,1.94c2.16,1.3,3.81,3.08,5.05,5.44
			c1.22,2.33,1.84,5.12,1.84,8.28v3.03l-0.39-0.15c-1.89-0.72-3.99-1.33-6.26-1.82c-2.97-0.65-5.96-0.98-8.89-0.98
			c-5.15,0-9.76,0.85-13.7,2.52c-3.95,1.69-7.06,4.1-9.26,7.17c-2.22,3.08-3.34,6.79-3.34,11.03c0,3.91,1,7.41,2.96,10.4
			C323.28,283.2,326.03,285.57,329.5,287.27 M334.01,261.56c2.78-2,6.73-3.02,11.73-3.02c2.32,0,4.79,0.29,7.33,0.86
			c2.3,0.51,4.64,1.21,6.94,2.08l0.19,0.07v1.58c0,3.21-0.75,6.1-2.23,8.59c-1.49,2.51-3.55,4.51-6.12,5.95
			c-2.58,1.46-5.52,2.19-8.73,2.19c-2.63,0-4.97-0.45-6.97-1.33c-1.98-0.89-3.52-2.12-4.59-3.66c-1.08-1.55-1.61-3.33-1.61-5.44
			C329.96,266.11,331.28,263.54,334.01,261.56"/>
		<path class="st5" d="M327.01,153.42c40.35,0,76.77,25.47,90.7,63.39h13.11c-6.88-21.45-20.66-40.71-38.83-54.25
			c-18.91-14.1-41.39-21.55-64.98-21.55c-23.6,0-46.07,7.45-64.98,21.55c-18.18,13.55-31.95,32.8-38.83,54.25h13.11
			C250.24,178.89,286.66,153.42,327.01,153.42"/>
		<path class="st5" d="M432.63,223.05h-12.88c2.56,8.78,3.85,17.84,3.85,26.95c0,6.31-0.63,12.67-1.88,18.92
			c-0.77,2.03-1.65,3.61-2.7,4.89c-2.89,3.49-6.88,5.26-11.87,5.26c-4.99,0-8.98-1.77-11.87-5.26c-2.84-3.42-4.27-8.11-4.27-13.96
			v-36.62h-12.38v36.36c0,6.21,1.19,11.67,3.54,16.24c2.32,4.53,5.63,8.07,9.83,10.51c4.21,2.45,9.26,3.7,15.03,3.7
			c2.66,0,5.27-0.29,7.75-0.87l0.57-0.13l-0.24,0.54c-4.05,8.99-9.44,17.29-16.03,24.66h15.92C428.73,295.46,436,273.25,436,250
			C436,240.88,434.87,231.82,432.63,223.05"/>
		<path class="st5" d="M327.01,346.58c-36.08,0-68.89-19.93-85.65-52.03h-13.78c17.61,39.16,56.59,64.44,99.43,64.44
			c31.91,0,62.08-13.96,82.89-38.33h-17.15C374.8,337.38,351.46,346.58,327.01,346.58"/>
		<path class="st5" d="M232.01,232.7c0.59-3.25,1.35-6.47,2.27-9.65H221.4c-0.81,3.18-1.47,6.4-1.99,9.65H232.01z"/>
		<path class="st5" d="M230.43,250c0-3.64,0.21-7.27,0.63-10.88h-12.48c-0.36,3.61-0.55,7.24-0.55,10.88
			c0,13.09,2.32,25.91,6.9,38.13h13.37C233.08,276.04,230.43,263.21,230.43,250"/>
	</g>
</g>
</svg>
